<?xml version="1.0" standalone="no"?>
<!DOCTYPE svg PUBLIC "-//W3C//DTD SVG 20010904//EN"
 "http://www.w3.org/TR/2001/REC-SVG-20010904/DTD/svg10.dtd">
<svg version="1.0" xmlns="http://www.w3.org/2000/svg"
 width="5000.000000pt" height="4000.000000pt" viewBox="0 0 5000.000000 4000.000000"
 preserveAspectRatio="xMidYMid meet">

<g transform="translate(0.000000,4000.000000) scale(0.100000,-0.100000)"
fill="#000000" stroke="none">
<path d="M24525 28453 c-516 -41 -889 -136 -1270 -323 -513 -252 -872 -618
-1099 -1120 -125 -275 -191 -575 -203 -910 -31 -927 423 -1777 1328 -2482 340
-265 972 -685 1493 -992 503 -297 789 -448 1450 -765 561 -270 851 -422 1114
-583 73 -45 22 -1 -125 109 -205 152 -494 347 -933 628 -814 521 -1136 758
-1468 1080 -455 441 -732 881 -857 1360 -103 401 -89 834 41 1197 40 113 137
295 211 399 382 534 1174 859 2288 939 182 13 641 13 837 0 744 -50 1625 -236
2163 -457 130 -54 440 -195 578 -265 54 -27 95 -42 90 -34 -18 32 -230 259
-355 381 -715 697 -1654 1223 -2748 1540 -554 160 -1109 256 -1705 295 -136 9
-732 11 -830 3z"/>
<path d="M21225 27148 c-444 -360 -752 -660 -1024 -998 -434 -538 -726 -1084
-896 -1677 -250 -869 -191 -1664 177 -2398 204 -407 450 -730 892 -1171 931
-928 2134 -1659 3781 -2297 247 -96 370 -143 514 -197 1603 -598 2400 -1002
3101 -1570 163 -132 505 -479 620 -628 196 -255 330 -470 431 -690 376 -826
340 -1737 -105 -2637 -41 -82 -74 -151 -73 -151 4 -3 271 214 420 343 324 277
661 637 903 963 481 648 780 1360 859 2040 53 464 9 896 -137 1350 -294 913
-1015 1791 -2103 2562 -576 408 -1198 750 -1965 1080 -180 78 -756 311 -1030
418 -1006 391 -1595 649 -2080 913 -1345 731 -2254 1781 -2475 2859 -45 222
-59 390 -52 623 13 430 118 827 332 1249 40 80 72 146 71 145 0 -1 -73 -59
-161 -131z"/>
<path d="M22630 18736 c0 -11 317 -241 524 -381 116 -78 339 -224 496 -325
418 -267 817 -534 997 -668 984 -732 1466 -1509 1465 -2362 0 -320 -60 -578
-193 -841 -211 -415 -591 -715 -1161 -915 -237 -82 -653 -171 -978 -208 -430
-49 -942 -49 -1410 0 -543 57 -1270 213 -1685 362 -178 64 -527 218 -767 338
-49 25 -86 38 -81 30 18 -32 230 -259 355 -381 258 -252 499 -446 816 -656
1040 -690 2301 -1097 3660 -1180 246 -15 841 -6 1002 15 442 57 743 143 1075
306 513 252 872 618 1099 1120 125 275 191 575 203 910 30 911 -404 1742
-1277 2442 -327 262 -995 708 -1544 1032 -503 297 -789 448 -1450 765 -561
270 -851 422 -1113 583 -18 11 -33 17 -33 14z"/>
</g>
</svg>
